<svg version="1.2" baseProfile="tiny-ps" xmlns="http://www.w3.org/2000/svg" viewBox="0 0 400 400" width="400" height="400"><title>New Project</title><style>tspan { white-space:pre }.shp0 { fill: #099a80 } </style><path class="shp0" d="M56.59 280L56.59 119.62L78.29 119.62L78.29 185.36L157.14 185.36L157.14 119.62L178.84 119.62L178.84 280L157.14 280L157.14 203.62L78.29 203.62L78.29 280L56.59 280ZM342.12 131.97L342.12 154.85C334.81 148.05 327.01 142.97 318.7 139.6C310.47 136.23 301.69 134.55 292.38 134.55C274.05 134.55 260.01 140.17 250.27 151.42C240.53 162.59 235.66 178.77 235.66 199.97C235.66 221.1 240.53 237.28 250.27 248.53C260.01 259.7 274.05 265.28 292.38 265.28C301.69 265.28 310.47 263.6 318.7 260.23C327.01 256.87 334.81 251.78 342.12 244.98L342.12 267.65C334.53 272.8 326.47 276.67 317.95 279.25C309.5 281.83 300.55 283.12 291.09 283.12C266.82 283.12 247.7 275.7 233.73 260.88C219.77 245.98 212.78 225.68 212.78 199.97C212.78 174.19 219.77 153.89 233.73 139.06C247.7 124.17 266.82 116.72 291.09 116.72C300.69 116.72 309.71 118.01 318.16 120.59C326.69 123.09 334.67 126.89 342.12 131.97Z" /></svg>