<?xml version="1.0" encoding="utf-8"?>
<svg width="300" height="300" viewBox="0 0 300 300" fill="none" version="1.2" baseProfile="tiny-ps" xmlns="http://www.w3.org/2000/svg">
  <title>Untitled</title>
  <rect width="300" height="300" fill="#E5E5E5" />
  <rect width="300" height="300" fill="#C4C4C4" />
  <path d="M137.203 211H120.24V151.85H55.7285V211H38.8535V83.0312H55.7285V138.051H120.24V83.0312H137.203V211ZM261.305 170.395C259.723 183.93 254.713 194.389 246.275 201.771C237.896 209.096 226.734 212.758 212.789 212.758C197.672 212.758 185.543 207.338 176.402 196.498C167.32 185.658 162.779 171.156 162.779 152.992V140.688C162.779 128.793 164.889 118.334 169.107 109.311C173.385 100.287 179.42 93.373 187.213 88.5684C195.006 83.7051 204.029 81.2734 214.283 81.2734C227.877 81.2734 238.775 85.082 246.979 92.6992C255.182 100.258 259.957 110.746 261.305 124.164H244.342C242.877 113.969 239.684 106.586 234.762 102.016C229.898 97.4453 223.072 95.1602 214.283 95.1602C203.502 95.1602 195.035 99.1445 188.883 107.113C182.789 115.082 179.742 126.42 179.742 141.127V153.52C179.742 167.406 182.643 178.451 188.443 186.654C194.244 194.857 202.359 198.959 212.789 198.959C222.164 198.959 229.342 196.85 234.322 192.631C239.361 188.354 242.701 180.941 244.342 170.395H261.305Z" fill="black" />
</svg>